<?xml version="1.0" encoding="utf-8"?>
<!-- Generator: Adobe Illustrator 24.1.1, SVG Export Plug-In . SVG Version: 6.00 Build 0)  -->
<svg version="1.1" id="Capa_1" xmlns="http://www.w3.org/2000/svg" xmlns:xlink="http://www.w3.org/1999/xlink" x="0px" y="0px"
	 viewBox="0 0 512 512" style="enable-background:new 0 0 512 512;" xml:space="preserve">
<style type="text/css">
	.st0{fill:#FFFFFF;}
</style>
<g>
	<g>
		<path class="st0" d="M512,50c0-16.5-13.5-30-30-30H30C13.5,20,0,33.5,0,50v219c0,0,0,0.1,0,0.1c0,0.1,0,0.2,0,0.3v70.5
			c0,20.6,3.1,41.1,9.3,60.8l11.3,36.1V482c0,5.5,4.5,10,10,10s10-4.5,10-10v-46.8c0-1-0.2-2-0.5-3l-11.8-37.6
			c-5.6-17.8-8.4-36.2-8.4-54.8v-70.5c0-5.6,4.5-10.1,10.1-10.1s10.1,4.5,10.1,10.1v24.5c0,5.5,4.5,10,10,10s10-4.5,10-10v-39.3
			c0-5.6,4.5-10.1,10.1-10.1s10.1,4.5,10.1,10.1v39.3c0,5.5,4.5,10,10,10s10-4.5,10-10v-52c0-5.6,4.5-10.1,10.1-10.1
			s10.1,4.5,10.1,10.1v52c0,5.5,4.5,10,10,10s10-4.5,10-10V176.3c0-5.6,4.5-10.1,10.1-10.1s10.1,4.5,10.1,10.1v145.4
			c0,4.6,3.1,8.6,7.6,9.7c4.4,1.1,9.1-0.9,11.2-4.9l23.6-43.7c2.9-5.4,9.4-7.4,14.9-4.7c4.7,2.3,7.1,7.5,5.8,12.6L208.4,354
			c-3,12.4-8.4,24-15.9,34.3l-29.9,41c-1.3,1.7-1.9,3.8-1.9,5.9V482c0,5.5,4.5,10,10,10s10-4.5,10-10v-43.5l28-38.3
			c9.1-12.5,15.6-26.4,19.2-41.4l8.9-36.7h38.6l8.9,36.7c3.6,15,10.1,29,19.2,41.4l28,38.3V482c0,5.5,4.5,10,10,10s10-4.5,10-10
			v-46.8c0-2.1-0.7-4.2-1.9-5.9l-29.9-41c-7.6-10.3-12.9-21.9-15.9-34.3l-15.3-63.4c-1.2-5.1,1.2-10.2,5.8-12.6
			c5.4-2.7,12-0.7,14.9,4.7l23.6,43.7c2.2,4,6.8,6.1,11.2,4.9c4.4-1.1,7.5-5.1,7.5-9.7V176.3c0-5.6,4.5-10.1,10.1-10.1
			s10.1,4.5,10.1,10.1v117.7c0,5.5,4.5,10,10,10s10-4.5,10-10v-52c0-5.6,4.5-10.1,10.1-10.1s10.1,4.5,10.1,10.1v52
			c0,5.5,4.5,10,10,10s10-4.5,10-10v-39.3c0-5.6,4.5-10.1,10.1-10.1s10.1,4.5,10.1,10.1v39.3c0,5.5,4.5,10,10,10s10-4.5,10-10v-24.5
			c0-5.6,4.5-10.1,10.1-10.1s10.1,4.5,10.1,10.1v70.5c0,18.6-2.8,37-8.4,54.8l-11.8,37.6c-0.3,1-0.5,2-0.5,3V482c0,5.5,4.5,10,10,10
			s10-4.5,10-10v-45.2l11.3-36.1c6.2-19.7,9.3-40.1,9.3-60.8v-70.5c0-0.1,0-0.2,0-0.3c0,0,0-0.1,0-0.1V50z M268.9,295.4l1.6,6.6
			h-28.9l1.6-6.6c2.9-11.8-1.4-23.9-10.5-31.4h46.7C270.2,271.5,266,283.5,268.9,295.4z M492,241.1c-3.2-1.1-6.5-1.7-10.1-1.7
			c-4.6,0-8.9,1-12.8,2.8c-4.7-10.4-15.2-17.6-27.4-17.6c-4.9,0-9.5,1.2-13.6,3.3c-5.1-9.5-15.1-16-26.6-16c-3.5,0-6.9,0.6-10.1,1.7
			v-37.3c0-16.6-13.5-30.1-30.1-30.1s-30.1,13.5-30.1,30.1v105.8l-4.8-8.9c-4.5-8.4-12.3-13.9-20.9-15.7c0.4-1.1,0.6-2.3,0.6-3.5
			c0-5.5-4.5-10-10-10H227c-5.5,0-10,4.5-10,10c0,1.1,0.2,2.2,0.5,3.2c-12.7-2-25.7,4.1-32.1,16l-4.8,8.9V176.3
			c0-16.6-13.5-30.1-30.1-30.1s-30.1,13.5-30.1,30.1v37.3c-3.2-1.1-6.5-1.7-10.1-1.7c-11.5,0-21.5,6.5-26.6,16
			c-4.1-2.1-8.7-3.3-13.6-3.3c-12.2,0-22.6,7.2-27.4,17.6c-3.9-1.8-8.2-2.8-12.8-2.8c-3.5,0-6.9,0.6-10.1,1.7V50c0-5.5,4.5-10,10-10
			h452c5.5,0,10,4.5,10,10V241.1z"/>
	</g>
</g>
<g>
	<g>
		<path class="st0" d="M107,132H64c-5.5,0-10,4.5-10,10s4.5,10,10,10h43c5.5,0,10-4.5,10-10S112.5,132,107,132z"/>
	</g>
</g>
<g>
	<g>
		<path class="st0" d="M207.3,132h-15.8c-5.5,0-10,4.5-10,10s4.5,10,10,10h15.8c5.5,0,10-4.5,10-10S212.8,132,207.3,132z"/>
	</g>
</g>
<g>
	<g>
		<path class="st0" d="M81.3,188H64c-5.5,0-10,4.5-10,10s4.5,10,10,10h17.3c5.5,0,10-4.5,10-10S86.8,188,81.3,188z"/>
	</g>
</g>
<g>
	<g>
		<path class="st0" d="M234,188h-18.6c-5.5,0-10,4.5-10,10s4.5,10,10,10H234c5.5,0,10-4.5,10-10S239.5,188,234,188z"/>
	</g>
</g>
<g>
	<g>
		<path class="st0" d="M98.6,76H64c-5.5,0-10,4.5-10,10s4.5,10,10,10h34.6c5.5,0,10-4.5,10-10C108.6,80.5,104.1,76,98.6,76z"/>
	</g>
</g>
<g>
	<g>
		<path class="st0" d="M207.3,76h-31.7c-5.5,0-10,4.5-10,10s4.5,10,10,10h31.7c5.5,0,10-4.5,10-10C217.3,80.5,212.8,76,207.3,76z"/>
	</g>
</g>
<g>
	<g>
		<path class="st0" d="M144.7,78.9c-1.9-1.9-4.4-2.9-7.1-2.9c-2.6,0-5.2,1.1-7.1,2.9c-1.9,1.9-2.9,4.4-2.9,7.1
			c0,2.6,1.1,5.2,2.9,7.1c1.9,1.9,4.4,2.9,7.1,2.9s5.2-1.1,7.1-2.9c1.9-1.9,2.9-4.4,2.9-7.1C147.6,83.4,146.5,80.8,144.7,78.9z"/>
	</g>
</g>
<g>
	<g>
		<path class="st0" d="M270,132h-26.5c-5.5,0-10,4.5-10,10c0,5.5,4.5,10,10,10H270c5.5,0,10-4.5,10-10S275.5,132,270,132z"/>
	</g>
</g>
<g>
	<g>
		<path class="st0" d="M324.6,134.9c-1.9-1.9-4.4-2.9-7.1-2.9s-5.2,1.1-7.1,2.9c-1.9,1.9-2.9,4.4-2.9,7.1c0,2.6,1.1,5.2,2.9,7.1
			c1.9,1.9,4.4,2.9,7.1,2.9s5.2-1.1,7.1-2.9c1.9-1.9,2.9-4.4,2.9-7.1S326.4,136.8,324.6,134.9z"/>
	</g>
</g>
<g>
	<g>
		<path class="st0" d="M448.3,132h-37.6c-5.5,0-10,4.5-10,10c0,5.5,4.5,10,10,10h37.6c5.5,0,10-4.5,10-10S453.9,132,448.3,132z"/>
	</g>
</g>
<g>
	<g>
		<path class="st0" d="M305,188h-20.2c-5.5,0-10,4.5-10,10s4.5,10,10,10H305c5.5,0,10-4.5,10-10S310.5,188,305,188z"/>
	</g>
</g>
<g>
	<g>
		<path class="st0" d="M446.4,188h-18.6c-5.5,0-10,4.5-10,10s4.5,10,10,10h18.6c5.5,0,10-4.5,10-10S451.9,188,446.4,188z"/>
	</g>
</g>
<g>
	<g>
		<path class="st0" d="M282.5,76H256c-5.5,0-10,4.5-10,10s4.5,10,10,10h26.5c5.5,0,10-4.5,10-10C292.5,80.5,288,76,282.5,76z"/>
	</g>
</g>
<g>
	<g>
		<path class="st0" d="M448.1,76H415c-5.5,0-10,4.5-10,10s4.5,10,10,10h33.1c5.5,0,10-4.5,10-10C458.1,80.5,453.6,76,448.1,76z"/>
	</g>
</g>
<g>
	<g>
		<path class="st0" d="M363.5,76h-21.9c-5.5,0-10,4.5-10,10s4.5,10,10,10h21.9c5.5,0,10-4.5,10-10C373.5,80.5,369,76,363.5,76z"/>
	</g>
</g>
</svg>
